<?xml version="1.0" encoding="UTF-8"?>
<svg xmlns="http://www.w3.org/2000/svg" xmlns:xlink="http://www.w3.org/1999/xlink" width="882px" height="300px" viewBox="0 0 881 300" version="1.1">
<g id="surface1">
<path style=" stroke:none;fill-rule:nonzero;fill:rgb(10.980392%,11.764706%,32.54902%);fill-opacity:1;" d="M 0 240 L 29.367188 230.019531 C 58.734375 219.796875 117.464844 200.203125 176.199219 165 C 234.933594 129.796875 293.667969 80.203125 352.398438 54.980469 C 411.132812 30 469.867188 30 528.601562 45 C 587.332031 60 646.066406 90 704.800781 84.980469 C 763.535156 80.203125 822.265625 39.796875 881 60 C 939.734375 80.203125 998.464844 159.796875 1057.199219 165 C 1115.933594 170.203125 1174.667969 99.796875 1233.398438 75 C 1292.132812 50.203125 1350.867188 69.796875 1409.601562 80.019531 C 1468.332031 90 1527.066406 90 1585.800781 114.980469 C 1644.535156 140.203125 1703.265625 189.796875 1762 219.980469 C 1820.734375 249.796875 1879.464844 260.203125 1938.199219 249.980469 C 1996.933594 240 2055.667969 210 2114.398438 204.980469 C 2173.132812 200.203125 2231.867188 219.796875 2290.601562 200.019531 C 2349.332031 180 2408.066406 120 2466.800781 80.019531 C 2525.535156 39.796875 2584.265625 20.203125 2643 35.019531 C 2701.734375 50.203125 2760.464844 99.796875 2819.199219 114.980469 C 2877.933594 129.796875 2936.667969 110.203125 2995.398438 90 C 3054.132812 69.796875 3112.867188 50.203125 3171.601562 65.019531 C 3230.332031 80.203125 3289.066406 129.796875 3347.800781 150 C 3406.535156 170.203125 3465.265625 159.796875 3524 140.019531 C 3582.734375 120 3641.464844 90 3700.199219 65.019531 C 3758.933594 39.796875 3817.667969 20.203125 3876.398438 39.980469 C 3935.132812 60 3993.867188 120 4052.601562 150 C 4111.332031 180 4170.066406 180 4199.433594 180 L 4228.800781 180 L 4228.800781 300 L 4199.433594 300 C 4170.066406 300 4111.332031 300 4052.601562 300 C 3993.867188 300 3935.132812 300 3876.398438 300 C 3817.667969 300 3758.933594 300 3700.199219 300 C 3641.464844 300 3582.734375 300 3524 300 C 3465.265625 300 3406.535156 300 3347.800781 300 C 3289.066406 300 3230.332031 300 3171.601562 300 C 3112.867188 300 3054.132812 300 2995.398438 300 C 2936.667969 300 2877.933594 300 2819.199219 300 C 2760.464844 300 2701.734375 300 2643 300 C 2584.265625 300 2525.535156 300 2466.800781 300 C 2408.066406 300 2349.332031 300 2290.601562 300 C 2231.867188 300 2173.132812 300 2114.398438 300 C 2055.667969 300 1996.933594 300 1938.199219 300 C 1879.464844 300 1820.734375 300 1762 300 C 1703.265625 300 1644.535156 300 1585.800781 300 C 1527.066406 300 1468.332031 300 1409.601562 300 C 1350.867188 300 1292.132812 300 1233.398438 300 C 1174.667969 300 1115.933594 300 1057.199219 300 C 998.464844 300 939.734375 300 881 300 C 822.265625 300 763.535156 300 704.800781 300 C 646.066406 300 587.332031 300 528.601562 300 C 469.867188 300 411.132812 300 352.398438 300 C 293.667969 300 234.933594 300 176.199219 300 C 117.464844 300 58.734375 300 29.367188 300 L 0 300 Z M 0 240 "/>
</g>
</svg>
